<svg xmlns="http://www.w3.org/2000/svg" xmlns:xlink="http://www.w3.org/1999/xlink" viewBox="0 0 750 750">
  <g id="bow" style="isolation: isolate">
    <path d="M351,412.5c.37,4.5,2.11,5.39,3,8.25,3,9.56-3.89,24.3-6,30-3.55,9.62-4.54,18.8-9,27.75-5.64,11.32-11.45,23.35-18,34.5l-3,2.25v3c-.95,2.33-3.43,4.17-4.5,6-4.1,7-2.28,15.7-13.5,15.75-3.39,2.16-8,.08-12.75,1.5-9.81,2.93-23.1,4.53-33,7.5h-7.5c-14.67,5.57-34.9,5.76-51,10.5-5.72,1.69-14.66.08-19.5,1.5-8.21,2.42-21.12-.67-28.5,1.5h-28.5c-12.48,3.72-27,7.37-42.75,7.5-3.11-5.26-5.26-6.34-14.25-6-2.89-2.45-9.86-1.31-15-1.5a165.82,165.82,0,0,1-21-2.25v-3C34.42,548,40,537.58,46.5,526.5c.91-1.56,3.78-3.36,4.5-5.25,2.3-6-1.64-12.91-3-15.75-3.48-7.24-3.86-14.51-7.5-21.75-2-4-5.75-9.07-7.5-13.5-4.31-10.94-8.59-22.16-12-33-3.92-12.45-3.91-27.1-7.5-39-2.2-7.3-1.45-16-3-22.5V361.5C9,355.36,7.57,349.81,7.5,342c1.54-1,2.38-2.87,3.75-3.75,6.83-4.35,14.86-4.81,22.5-8.25,4.12-1.86,7.26-5.09,12.75-6v-3.75C40.36,316.2,28,301.14,22.5,300v-4.5c8.21-5.53,12.8-16.87,18-25.5l4.5-3.75c4.9-7.85,10.09-13.91,15-21.75,2.84-4.53,9.16-8.22,12-12.75,17.51-27.94,42.58-47.08,65.25-69.75,9.25-9.25,19.25-17.75,28.5-27,3.75-3.75,7.06-10.45,13.5-11.25,1.44,2,3.52,2.15,5.25,3.75l8.25,9c2.87,1.8,4.53,2.28,6.75,4.5l6.75,7.5c2.28,1.42,3.51,1.28,5.25,3l23.25,24c9.06,5.67,15.16,13.66,22.5,21,7.57,7.57,15.89,13.92,21.75,23.25l7.5,6.75c4.17,4.18,7.27,9.09,10.5,14.25l4.5,3.75c6.31,10.16,10.64,19.86,16.5,30.75,9.6,17.83,25.21,43.51,25.5,69.75,17.09.23,28.93-5,43.5-6,4.11-30.63,13.72-62,27-84,2.82-4.68,9.16-8.24,12-12.75,7.69-12.23,20-23.09,32.25-30.75L465,204c8.79-5.5,16.11-12.36,23.25-19.5l8.25-9c1.59-1,2.53-.37,3.75-1.5,2.51-2.33,3.9-7.19,6.75-9,12-7.64,22.35-18.6,32.25-28.5,4.32-4.32,9.28-13.35,16.5-14.25,2,3,3.56,3.25,6.75,5.25l8.25,9c6.38,4,11,8.07,17.25,12l9.75,10.5c9.59,6,16.66,13.49,26.25,19.5l11.25,12c12.52,7.85,22,19.05,32.25,29.25,6.88,6.88,14.17,12.49,19.5,21l10.5,9.75c5.41,8.64,12.52,14.45,18,23.25,2.54,4.07,7.49,5.88,8.25,12-4.68,3.07-8.09,8.09-12,12L685.5,324c-4.86,4.86-11.67,7.87-12,17.25,7.89,3.15,14.88,8.69,21.75,12.75,2.78,1.65,5.46,1.35,8.25,3,2.46,1.45,5.41,4.7,8.25,6l4.5.75c2.82,1.7,6.27,5.13,9,6.75,4.75,2.82,11.57,4.35,13.5,9.75,2.69,4.1-.84,12.81-2.25,16.5-4.55,11.88-8.62,25.14-13.5,37.5-3.43,8.68-8.24,18.56-12,27-3.54,7.94-3.75,15.74-7.5,23.25-2.5,5-6.7,10.66-9,15.75v3c-1.8,4.56-5.31,9.31-7.5,13.5-1.52,2.9-1.34,5.44-3,8.25-7.57,12.81-18,25.55-25.5,38.25-4.3,7.25-16.33,33.26-24.75,33.75-5-4.28-12.75-4.09-18.75-7.5-14.41-8.18-31.28-15.76-45.75-24-4-2.3-8.79-2.18-12.75-4.5l-2.25-3-6.75-1.5c-47.82-27.1-94.14-55.27-123-101.25L417,448.5c-7.85-12.49-20.12-18.56-26.25-33-5.86-.12-12-1.7-16.5-3Z" fill="none" fill-rule="evenodd"/>
  </g>
  <g id="shadow_Billede" data-name="shadow Billede">
    <image id="shadow_Billede-2" data-name="shadow Billede" width="980" height="636" transform="translate(7.5 136.5) scale(0.75)" xlink:href="bow1.png"/>
  </g>
</svg>
