<svg xmlns="http://www.w3.org/2000/svg" xmlns:xlink="http://www.w3.org/1999/xlink" viewBox="0 0 500 460">
  <g id="heart" style="isolation: isolate">
    <path d="M144,55l7-1v4h2c2.1-.93.83,1.8,4,1,.75-.19,4.24-.76,5-1,5.66-1.76,2.31,7.18,9,4-.17,8.68,5.06,1.39,11,2,1.28-1.83,2-1.71,3-4,1.92.55.86,6.64,2,5,1.63-1.65,1.37,2.19,2,2,2,0-3.72-2-2-1,.72,1.2,3.53.25,4.07,5.17.09.77,4.76-4.91,5.93-3.17h2c1.2-2.69-4.93,3.93-2,3,0,.33,7-6.33,7-6,.33,0-4.33,5-4,5-.33,1.67,4.33-1.67,4,0h2c2.76-1.76-2.84.36,0,0,0,.67-1-.67-1,0-.25,1,2.22,1.38,3,2s.23,1.31,1,2c-.8,1,5.65,1.27,5,3,9,0,6.15,3.19,10,8-1.19.87,6.88,2.82,6,4,6.91-1.62-2.73,3.91,2.13,5.51C243.32,98.19,244.37,92.14,247,105c-.48.75,1.74,5.24,3,7,2.31,2.7,6.67.07,12,0,1.32-5.55,3.67-10,5-16h3V88c5.06-.56,3.79-1.9,8-3V81c.67,0,9.33,4,10,4,2.47-1.83,8.59-5,10-3,1.23-1.53,1.28-4.1,3-5,.57-.3,3.76,1.34,6,0V75c1.58-1.37,5-1,5-1,.68.77,1.31,2.23,2,3V76c1.57-1.44,5.88-8.91,6-9l3,1c3-2.08,7.2-4.38,11-8,1.59,2.25,1.64,2.1,3,2,.68-.77,1.31-2.23,2-3,1.88,2.19,2.05,2.55,6,3,1.34-2.15,2.75-3.58,4-6,1.58,1,3,3.63,4,2,.91-.93,6.33,4.25,7,3,8,4,6.89,6.65,17,3,1.56,5,5.82,7.5,9,11,3-.33,7,.33,10,0-.4,2.27,4.08-1.92,5,0,5.35-3.65,8.73,2.76,14,5,2.67,0,3.33,1,6,1-2.28,5.81,4,6,6,11,2.67-.33,8.33,3.33,11,3,0,4.09-1.07,2.28,4,4-1.08,3.58-3.95-.61-3,3-2.61.16,5.61,1.43,4,2,0,.67-11,2.33-11,3,8.39-.12,20.37,4.85,21,13l12,2c-.67,3-5.33,6-6,9,14.75,2.26,8.48,25.12,13,35-3.7.67,2,8.33,3,9,1.52,4.29-2.15,7.34-1,11,1.44,3.31.76,1.1,2,5-3.76.14,5.48-.47-2.85,7.41C467.78,203.34,469.7,206,471,211c.44,1.71,1.36,3.46,0,7-.66,1.71,3.76,2.76,3,4-2.75,4.47-8.41,9.52-10,13-2.34,5.14-9.28,22.54-15,24-.75,4.42-2-.19-2,6h0c-2.41-.51-3.23,1.38-5,4,.8,1.18-1.23,4.68-1,7-10.62.57.5,2.41-8,1,.2,2.33.19,2.83,1,4,1.87,5,5.15,3.71,6,10-3.92-.2-2.64-.38-6,0-.38,5.39-1.35,5.17-7,5-.64,5.38-3,5.91-4,11-4.33.8-3.38,2.74-6,4h-6c-1.55.9-.94,4.21-3,5-3.73,1.43-5.7-2-9,0-.75,1.07-.6.95-1,3,2,1.4,2.07,1.35,3,4h-4c-2.31-1.82-3.53-1.63-6-1,.33,1,.67,2,1,3l4,1v1a12.5,12.5,0,0,0-4,1c1.63,2.34,4.78,4.19,5,5-1.34.88-5.45,1.46-7,2,.39,2.93,1.64,1.25-1,3-3.71,4.31-10.65,2.29-18,2,.28,3.14-.37,1.92,2,3-1.76,2.24-2.32,1.11-3,5,2.95.53,4.66.66,6,3-3.1,1.22-2.26.37-3,4h-5c-.19,3.6,1.48,2.07-2,3-1.55-.71-.14-.13-3,0v1a6.16,6.16,0,0,1,2,2c-4.37-.52-9.7-.93-12,3h1c1.55,1.5,1.84.78,3,3h-1c-3.06-1.74-10.45.38-15,0v3l6,2v1c-4.44-.23-5.95-.9-9,0l2,3c-3.58.42-2.52-.47-4,2a12.14,12.14,0,0,1,4,4c-4.16.22-11.54,4.62-12,4-2.32-.8-5.29-4.38-6-3-.8,1-.35.27-1,2,2.51,1.58,3.94,2.86,5,6h-3c-1.24-1.58-13.44-4.27-14-4-.8,1-.35.27-1,2,2.68.89,2.59,1,4,3-10.55-.83-13.7.82-16,8-.49,1.53-8.69,4.74-10,5-.37,2.08-.24,1.92-5.12.66-.15,1.28-1.91.9-3.88,1.34-2.53-1.45-19.79.52-22,1-3.05.65-5.69,3.77-10,3-8.28-1.48-17.31-2.56-22-4-3.06-.94-8.48-3.68-10-2-3.92-3.94.92.1-5-1-4.41.29-4.48-.5-5-3-3.81.07,0-2.5-5-3-.39-1.88-5.31-1.23-8-3-.37,2.08-3.24-9.08-4-8-1.39-1.75-.7-2.82-2-1-2.19.9-1.44.86-3,2-2.94-3.17-3.58-1.31-5-2-.86-1.43-3.92,2-5,0-2.33-1.67-.67-10.33-3-12-1.59-2.89-2.2,4.49-5,3-1,0,1-10,0-10-1.44,1.9-2.65,3.87-5,5-1.25-5.71.76-2.83-6-3-1.9-.93-7.17-6.38-10-6v-3c.8-1-4.55,3.26-4,2-5.09-.42-6.67-1.71-9-5,0-2.33-4-3.67-4-6-2.61.63-3.39-3.95-4-8-3.92.2-3.64-3.62-7-4-1.8-3.92-7.82-.89-6-8-1.15-4.3-3.36-3-2-7-2.32-1.28-.69-3.71-2-6-3.48.95-2.1-2.1-3-3-1.37,3.11-.67,0-1,0-.91,3.81,0-.67,0-1,2.47-1.29-8.32,2.43-7,0-5.77-1.82,2.21-2.9-4-4,.35-5.46,2.51,3.11-2,0,2.87-1.12-2.16,1.83-1-1-.33,0-.18,7.07,0-2-1.17,2.13-4-1.67-4-2-3,.66-2.06,4.19-3.35-4.43,1.1-5.64-2.05,3.48-1.65,1.43-1,0-1-4-2-4,.79-4.44-1.67-1.82-2-5-2.48,1.11,2.77-6.31-1-6-1.06-4.53-3,.79-6.3,1,3-11.37-4.37-4.71-2.7-7-2.24-.78,6.57-7,3-7,0-1-3.74,5.79-4,0-2,0,0-1-2-1,0-1-4.26,5.48-4-2-2.08-.37-.92-1.24-2-2-1.63-2.32-6.92-4.19-7-8-2-.67-3-6.33-5-7-.62-8-1.48-6.67-4-12,2.27-1.47-5-3.1-4-6-1.67,0,4.67-3,3-3,0-1.33-3-1.67-3-3-1.33,0-1.67-2-3-2,0-.67-2-2.33-2-3,1.32-1.74-2.27-3.61-3-5-1.89-2.85-.64-4.58-4-6,2.4-16.48-6.37-28.7,2-39-3.16-1-.18-6.12-1.84-8.83C27.77,163,24.68,160.74,27,160c-1.47-2.3-1.25-6-2-10,2.08-.37,4.92,4.76,6,4-.75-1.72-4.48-7.92-3-10-2.73-2.94-4.15-4.13-2-8-1-1.46,4.54-3.43,4-6,.88-.45,5.89-.11,7-1-2.51-1.64-3.6-3.23-5-6h3c.22-5.45,1.25-6.71,3-9a6.16,6.16,0,0,1-2-2c2-1.58,2.85-3.58,4-6,2.58.64,3.79.19,8,0-.1-4.06.07-8.35,1-11,2.27.4,1.08.92,3,0,2.09-1.45,9.74-8.61,10-13,2.64-.22,14-4.53,16-6,1.7-2.25,1.34-4.5,4-6,1.87-.33,1.59-.26,4-3,2.46,3.92,2.69.9,6,3,.42-3.58-.47-2.52,2-4,3.31,3.75,10.56.44,11,1,1.52,1.71-1.18,1.29,2,3,.77-.68,2.23-1.31,3-2,3.35-3.14,5-5.21,5-12,2.08.65,2.25-.14,4,1,2.77,1.34,2.24,2.65,5,4,2.4-1.5,6.87-1.34,9-3,1.95-2.06,2.46-5.49,5-7,1.18-.8,1.68-.77,4-1C143.12,52.09,143.43,51.83,144,55Z" fill="none" fill-rule="evenodd"/>
    <path d="M442,281l3,1v1h-1v1h-1v-1C442.2,282,442.65,282.73,442,281Z" fill="none" fill-rule="evenodd"/>
    <path d="M407,319h2v1C407.25,319.37,408,319.81,407,319Z" fill="none" fill-rule="evenodd"/>
    <path d="M139,360c.8,1,.35.27,1,2h-1Z" fill="none" fill-rule="evenodd"/>
    <path d="M365,361h2v1C365.25,361.37,366,361.81,365,361Z" fill="none" fill-rule="evenodd"/>
    <path d="M340,376h2v1C340.25,376.37,341,376.81,340,376Z" fill="none" fill-rule="evenodd"/>
  </g>
  <g id="shadow_Billede" data-name="shadow Billede">
    <image id="shadow_Billede-2" data-name="shadow Billede" width="459" height="366" transform="translate(20 47)" xlink:href="heart1.png"/>
  </g>
</svg>
