<svg xmlns="http://www.w3.org/2000/svg" xmlns:xlink="http://www.w3.org/1999/xlink" viewBox="0 0 750 525">
  <g id="mustache" style="isolation: isolate">
    <path d="M315,156c1.75.15,2.12.14,3,.75C316.25,156.6,315.88,156.61,315,156Z" fill="none" fill-rule="evenodd"/>
    <path d="M318,156.75c1.75.15,2.12.14,3,.75C319.25,157.35,318.88,157.36,318,156.75Z" fill="none" fill-rule="evenodd"/>
    <path d="M376.5,175.5v-3c2.88.34,5.28-3.54,6.75-6.75H384v1.5a5.37,5.37,0,0,0-1.5,3c4.83-1.8,11.5-7.72,18-9.75-.29,2.5-.75,2.13,3,2.25a15,15,0,0,1,3-1.5c-.2,3-.81,3.73,3,4.5,2.3-1.59,9.62-.88,12,0-.47,1.95-.35,1.43,0,3.75H441c1.79,1.33,4.33,1.5,7.5,1.5.15,2.94.28,2,0,4.5H453c2.81-1.66,10.18,1.29,13.5,2.25,9.27,2.68,19.48,3.67,26.25,9,1.05.82,1.57,3.8,2.25,4.5,2.79,2.88,9.81,1.67,11.25,3.75-1.75.15-2.12.14-3,.75h1.5c.9.63.69.27,2.25.75-.68,1.82-.8,1.19-1.5,3H507a4.5,4.5,0,0,1,3-3v2.25c-.93,1.18-.48.38,0,1.5A90.77,90.77,0,0,0,521.25,207L534,205.5c1.66.66,3.5,4.28,5.25,5.25,2.77,1.53,5.65,1.23,8.25,3,2.19,1.49-.07,3.85,1.5,6l3,.75c1.76,1.33,2.26,3.61,3.75,5.25.59.65,2.46.83,3,1.5,3.66,4.52,4.18,11,7.5,15.75,1.94,2.8,12.46,10,15.75,12.75v3.75l6-.75c2.23,3.31,4.93,3.71,8.25,6,2.12,1.46,3,5.23,5.25,6.75,4.26,2.88,9.48,3.67,13.5,6.75,5.88,4.5-1.28,11.11,12,11.25,2.83,1.89,6.12.58,9.75,2.25,2.09,1,3.86,3.6,6.75,4.5,3.25,1,8.78-.35,10.5,2.25-2.93,0-3.37-.37-4.5,1.5h6c2.66-2.64,5.94-3.66,9-6,1.51-1.16,8.88-11.05,9.75-12.75,4.68-9.1-6.79-28.34-11.25-31.5-2-1.4-5.61-1-7.5-2.25,1.85-1,.51.32,1.5-1.5-2-.82-5.81-1.65-7.5-3H651c1.57-.74,10.42-.17,13.5-.75-.07-3.57-1.56-2.93,1.5-3.75v.75h.75c-.29,2.2-1.23.94.75,2.25v-.75h-.75c-1.44-.58,1.5-.75,1.5-.75,2.84,2.52,4.78,1,8.25,1.5,6.4.85,16.25,5.8,20.25,9.75,4.58,4.53,8.9,23.19,14.25,24.75,0,3.44,1.11,15.11,2.25,18,.88,2.24,4.38,4.71,5.25,6.75,1.28,3-3.94,22.12-4.5,24.75h2.25c-1.24,7.86-15.07,23.61-21.75,27.75-2.47,1.53-7.89,1.61-9.75,3.75l-1.5,6.75c-1.29,2.13-9.59,7.85-12.75,8.25v2.25c-1.2.79-1.77,2.41-3,3h-3.75v1.5c1.56.28,1.44.18,2.25.75h-1.5c-1.48,1.71-3.41,1.61-6.75,1.5v2.25h-1.5c-2.63,1.61-8-.76-11.25.75-.82.38-.9,2.59-1.5,3-1.43,1-17.36-.68-12,3-5.8,1.73-12.15-3.38-19.5-1.5-8.56,2.19-16.81,6.05-24,9-.58-.51-1.67-1-2.25-1.5-.6-.88-.58-1.26-.75-3-7.46.91-10.17-2.49-16.5-3.75-.62,2.43.37,1.15-1.5,2.25-1-1.85.32-.51-1.5-1.5v2.25h-3.75v1.5c2.32.92,1.7.28,2.25,3h-.75c-2.49-1.69-6.75,0-6.75,0-2.34-1.1-4.51-4.31-9-3.75-1.5.19-.94,1.85-3,1.5-1.7-1.61-2.64-2.06-6-2.25-.54-2.65-.92-1.86-1.5-4.5-6.2-.13-6.87,2.83-15,3-4-3.83-13-4.1-13.5-11.25h-2.25c-.15,2.56-.69,3.25,0,4.5,3,2.88,6.52,3.14,8.25,7.5h-.75c-3.13-2-7-1.34-10.5-3-4.45-2.11-7.43-7.1-11.25-9.75-5.32-3.68-11.89-7-15.75-12-1.8.28-1.15.47-3,0V369c-3.6-.79-2.42-2.16-6-3l-.75,7.5H465c-1.93-3.22-20.32-20.36-24-21-.52,0-3,.65-6,.75-2.31-3.19-8-4.84-9.75-8.25-1.26-2.51,1.78-1.22-.75-3a5.8,5.8,0,0,1-3.75-3h.75c.37-2.07-.42-.89-1.5-1.5-.41.24-5,1.76-5.25,1.5-2.73-1.89-6.79-7.59-7.5-11.25a9.49,9.49,0,0,0-3,.75c-.73-4.22-9.1-22.7-11.25-24,.09,3.88.67,6.64,0,9l-1.5-.75c-1.63-4.54-4.39-7.08-6-10.5l-3-14.25H381v2.25c1.16,1.8,1.27,7.44,1.5,9.75H381l-3.75-21v1.5c-1.17,2-.2,4.68-2.25,6-4.8-2.15-3.06,6.91-6,9v-.75c-1.31-1.64-.91-2.69-3-3.75v.75c-4,5.34-4.85,12-8.25,18-2.59,4.6-8.06,7.27-11.25,11.25-2.87,3.58-2.42,9.1-7.5,10.5.38-2.32.6-2.45,0-4.5l-1.5.75L336,333c1.91.78,2.19,1.11,3,3h-.75c-.66,2-1.28,2.2-2.25,3.75-3.51-.85-8.69-2.08-10.5.75,1.85,1,.51-.32,1.5,1.5h-3c-1-1.85.32-.51-1.5-1.5-1.63,2.59-5.14,1.92-7.5,3.75L311.25,351c-1.25,1.11-3.08.53-4.5,1.5-2.53,1.73-3.83,6-6,8.25-7.58,7.7-17,16-27,21V379.5a13.36,13.36,0,0,0,3-1.5c-1.6-2.51.22-4.66.75-7.5H276c-1.75,3.37-13.77,16-17.25,17.25V387a7.54,7.54,0,0,0,3.75-5.25h-2.25c-2.21,2.16-1.66-.8-5.25.75-7,3-12.43,9-21,11.25V393h.75c2.45-2.43,6.27-3,9-5.25-1.12-1.16-.58-1.38-2.25-2.25-4.42,3.73-17.52,6.61-20.25,5.25-.66-1-.67-1.85-.75-3.75,1.85-1,.51.32,1.5-1.5h-1.5c-.83,1.77-.72,1.34-2.25,2.25.29,2.2,1.23.94-.75,2.25-1.05,1.5-1,1.55-3,2.25v-.75c-.6-.77-.27-.21-.75-1.5,1.25-1.12.76-.54.75-1.5-1-1.85.32-.51-1.5-1.5-4.8,4.62-7.71,2.22-12.75,4.5-2.29,1-2.06,2.95-5.25,3.75-.77-.6-.21-.27-1.5-.75.44-2.87.07-7.52-3-9-.64-.62-18,7.71-21,9-.78-1.91-1.11-2.19-3-3-7.82,5.83-20.85-1.09-28.5-3-6.69-1.67-15.89,2.8-19.5.75,2.43-.62,1.15.37,2.25-1.5H117c-2-1.29-5.8-.67-7.5-.75l-.75-1.5c2.9.11,7.29.4,9-.75-2.76-.09-9.18-1.11-11.25-2.25-.69-.38-1-2.7-1.5-3H94.5c-2-.64-2.68-1.9-6-2.25V373.5h-6v-3c-5.28-2.24-8.69-4.42-16.5-4.5,0-14.55-18.44-14-22.5-23.25-.6-.88-.58-1.26-.75-3,1.92-1,2-1.66,4.5-2.25-.4-6.42-3.94-7.94-6-12C39.49,322,40.67,318.63,39,315c-.35-.76-2.68-2.23-3-3-2.29-5.54.57-17.44,1.5-21,1.17-4.46-.5-10.86,1.5-14.25.11-.19,3.46-2.54,3.75-3L45,265.5A65.31,65.31,0,0,1,51,255c.51-.73,2.55-.88,3-1.5l-.75-2.25c1.4-1.63,5.4-1.36,6.75-3v-3c2.94-4.78,12.4-7.22,18-7.5.22,2,.62,1.57,4.5,1.5v2.25H84c2.25,2,7.62,1.63,12,1.5v2.25c-13.9,3.79-21.18,20.33-21.75,37.5C79.42,284.62,81.38,291,85.5,294c3.06,2.24,6.44,3.33,9,6,4.62.18,16.13,1.4,18-1.5h-3v-2.25l6.75-1.5c.87-.5,1.42-3.26,2.25-3.75,3.53-2.09,9.36-.3,12.75-3,.61-.89,1.12-3.44,1.5-4.5,6.49-.57,13.47-2.26,18-6.75,3-2.94.75-4.71,6.75-5.25.06-1.9.09-2.79.75-3.75,5.88-13.33,23.91-17.25,28.5-31.5-1-.42-.56,0-.75-.75,1.57-2.48,2.69-3.39,3-7.5-2.37,0-1,1.27-2.25-.75a5.37,5.37,0,0,0,1.5-3c-1.56-.28-1.44-.18-2.25-.75h.75C193,218,215.8,200.92,225,200.25c.73.63.4,1,1.5,1.5.35-.08,22.5-12,22.5-12V186h3v-.75a24.58,24.58,0,0,0-7.5-.75c-2.91,2.42-8.2,3.94-12.75,4.5v-.75h.75c4.54-4.15,11-4.93,17.25-7.5,14.1-5.78,29.4-11.71,48.75-12V166.5h12v-2.25c-2.18,0-4.1,0-5.25-.75,4.15.12,19.22.5,21-2.25A31.24,31.24,0,0,1,321,157.5c16.32,1.11,25.16,12.15,42,10.5v1.5c-2.43.62-1.15-.37-2.25,1.5C368.63,171.16,369.71,174.71,376.5,175.5Z" fill="none" fill-rule="evenodd"/>
    <path d="M400.5,159.75H402v.75C400.68,160,401.27,160.36,400.5,159.75Z" fill="none" fill-rule="evenodd"/>
    <path d="M365.25,162c.6.77.27.21.75,1.5h-.75Z" fill="none" fill-rule="evenodd"/>
    <path d="M293.25,162.75c3.21-.12,8.54-.56,10.5.75C300.54,163.62,295.21,164.06,293.25,162.75Z" fill="none" fill-rule="evenodd"/>
    <path d="M366,163.5c2.45,1.94,4.38,6.36,5.25,9.75h-.75v-.75C368.49,170.4,366.82,166.65,366,163.5Z" fill="none" fill-rule="evenodd"/>
    <path d="M449.25,174c1.75.15,2.12.14,3,.75C450.5,174.6,450.13,174.61,449.25,174Z" fill="none" fill-rule="evenodd"/>
    <ellipse cx="494.62" cy="192.75" rx="1.59" ry="1.06" fill="none"/>
    <ellipse cx="522.75" cy="204.75" rx="2.12" ry="1.06" fill="none"/>
    <path d="M80.25,236.25c-.27,1.39.44,1.2-2.25,1.5V237C79.56,236.72,79.44,236.82,80.25,236.25Z" fill="none" fill-rule="evenodd"/>
    <path d="M82.5,236.25c.6.77.27.21.75,1.5H82.5Z" fill="none" fill-rule="evenodd"/>
    <path d="M84.75,236.25h1.5v1.5h-1.5Z" fill="none" fill-rule="evenodd"/>
    <path d="M87.75,236.25c2.43.62,1.15-.37,2.25,1.5H87.75Z" fill="none" fill-rule="evenodd"/>
    <path d="M90.75,236.25c2.43.62,1.15-.37,2.25,1.5H90.75Z" fill="none" fill-rule="evenodd"/>
    <path d="M94.5,236.25H96v1.5H94.5Z" fill="none" fill-rule="evenodd"/>
    <path d="M423,339.75c2.43-.62,1.15.37,2.25-1.5h-.75v-.75H423Z" fill="none" fill-rule="evenodd"/>
    <path d="M469.5,360c.62,2.43-.37,1.15,1.5,2.25v-.75h.75v-.75H471C470.23,360.15,470.79,360.48,469.5,360Z" fill="none" fill-rule="evenodd"/>
    <path d="M465,363c.62,2.43-.37,1.15,1.5,2.25v-.75h.75v-.75h-.75C465.73,363.15,466.29,363.48,465,363Z" fill="none" fill-rule="evenodd"/>
    <path d="M472.5,363l-.75,1.5C473.06,363.45,472.5,363,472.5,363Z" fill="none" fill-rule="evenodd"/>
    <path d="M284.25,364.5c-1.56.28-1.44.18-2.25.75a9.43,9.43,0,0,0-3,6h1.5C281.55,367.71,283.4,368.14,284.25,364.5Z" fill="none" fill-rule="evenodd"/>
    <path d="M466.5,373.5H468V375h-1.5Z" fill="none" fill-rule="evenodd"/>
    <path d="M468,375h1.5C468.61,376.21,469.19,375.92,468,375Z" fill="none" fill-rule="evenodd"/>
    <path d="M243,380.25c-1.29,2.13-3.09,2.56-4.5,4.5H240c1.65-1.57,2.77-1.29,3.75-3.75h.75v-.75Z" fill="none" fill-rule="evenodd"/>
    <path d="M215.25,381c-.94,2.45-2.5,3-3.75,5.25h.75a14,14,0,0,1,5.25-3.75V381Z" fill="none" fill-rule="evenodd"/>
    <path d="M271.5,381.75H273v.75C271.68,382,272.27,382.36,271.5,381.75Z" fill="none" fill-rule="evenodd"/>
    <path d="M246,384c-2.43.62-1.15-.37-2.25,1.5.51.58,1,1.67,1.5,2.25v-1.5C245.81,385.45,245.7,385.54,246,384Z" fill="none" fill-rule="evenodd"/>
    <path d="M165,386.25c-.65.49-2.36,1-3,1.5-1.85,1-.51-.32-1.5,1.5h-.75V390H162C163.8,388.28,165.34,388.21,165,386.25Z" fill="none" fill-rule="evenodd"/>
    <path d="M154.5,387.75a7.1,7.1,0,0,1-3,2.25v.75H153a14,14,0,0,1,3.75-2.25v-.75Z" fill="none" fill-rule="evenodd"/>
    <path d="M522,391.5h1.5C522.61,392.71,523.19,392.42,522,391.5Z" fill="none" fill-rule="evenodd"/>
    <path d="M231.75,393.75c1.56.28,1.44.18,2.25.75C232.44,394.22,232.56,394.32,231.75,393.75Z" fill="none" fill-rule="evenodd"/>
  </g>
  <g id="shadow_Billede" data-name="shadow Billede">
    <image id="shadow_Billede-2" data-name="shadow Billede" width="926" height="339" transform="translate(27.75 158.25) scale(0.75)" xlink:href="mustache1.png"/>
  </g>
</svg>
