<svg xmlns="http://www.w3.org/2000/svg" xmlns:xlink="http://www.w3.org/1999/xlink" viewBox="0 0 1794 888">
  <g id="sunglass_hair" style="isolation: isolate">
    <path d="M1771,254c.41,10.77,0,26.52-3,37v16c-1.8,6.25-4,13.78-4,22-.07,11.64-2,29,3,36,2.86,1.63,8.15-.41,12,1,5.57,2,9.11,7.69,9,16l-9,8h-21c.19,21.33-5.39,31.63-10,47-3.18,10.61,2.25,22.11,4,28,2.23,7.53-4.4,10.53-2,18,1,3.09,4.45,4.46,3,8-3,8.5-29.15,24.82-46,19-1.46-.5-2.87-3.52-4-4h-15c-3-.77-7-3.24-10-4h-12c-2.44-.64-8.78-2.67-12-4-4.08-1.68-6.09-6.09-9-9-7.81-7.8-17.29-14.12-22-25-.33-2.67-.67-5.33-1-8-2.5-6.71-6.67-11.91-7-22l5-1c1.58-3.12,5-5.86,6-9q.49-8,1-16c3.16-6.31,10.86-6.84,12-16-4.51-2-8.45-3.74-9-10,.8-1,.35-.27,1-2a309.18,309.18,0,0,0,42-31c2.68-2.34,5.49-1.12,9-3,4.42-2.37,7.29-9.6,11-13,2.91-2.67,7.68-3.81,10-7,4.54-6.22,5.66-14.43,10-21,4.22-6.39,14.5-11.74,17-19V274c.92-3,2.73-3.91,3-9-3-2.58-3.37-7-6-10-1.5-1.69-4.4-2.39-6-4-2.66-2.68-4.27-6.39-7-9v-2c3.25-2.16,10-6.95,14-5,5.08,1.7,5.6,5,9,8C1742.82,248.12,1762.8,254.63,1771,254Z" fill="none" fill-rule="evenodd"/>
    <path d="M65,266c14.22-.71,17.72,1.53,17,16-10.52,9.91-16,17.86-16,39q.5,7.5,1,15c3,7.85,11.73,10.78,16,17,2.84,4.14,1,10.39,4,14,4.42,5.28,11.35,8.91,16,14,5.16,5.65,6.9,14.27,12,20,3.49,3.92,9.11,6.49,12,11a62.16,62.16,0,0,1,5,10c.33,3.33.67,6.67,1,10,2.21,3.78,7.2,5.79,10,9s1.24,6,3,11c2,5.72,8.58,10.46,11,16q.5,7,1,14c0,22.64-6.87,29.35-18,40-.07,6.1-.8,13.25,1,18,2.41,6.37,6.66,7.15,7,17h-1v1c-4.33-1-13.81,3.18-20,0-6.87-3.53-8.32-14.62-17-16-4.88-3-14.17.08-18,1-8.1,2-17.11-1.07-22-3-7.47-13,1.32-9.58,3-20,.56-3.46-2-8-2-13-2.42-1.3-2.83-1.8-7-2-2.06,1.67-5.6,2.58-7,2-3.08-1-2.92-1-4-4-4-6.74,2.55-21.19,0-31-4.1-15.76-15.67-27.75-19-46-9.59-.19-24,.58-25-9,16.92-10.84,15.44-22.54,15-50,4.37-4.62,4.19-12.69,4-22-3.33-2.18-5.2-5.35-8-8,0-10.08,1.92-15.23,2-26-6.17-2-11.35-3.34-12-11,.45-.2,20-15,20-15,7.54-12.25,10.23-30.35,28-32,1.41,1.51,2.76,2.21,4,4C63.93,259.33,64.71,262,65,266Z" fill="none" fill-rule="evenodd"/>
    <path d="M1730,474c-2.07,3.44-2.09,1.91-2,6h4c.75-.3,3.55-.55,6-1v-4h-2C1734.58,474,1732.73,474,1730,474Z" fill="none" fill-rule="evenodd"/>
  </g>
  <g id="sunglass_glass" style="isolation: isolate">
    <path d="M1370,238c76.79-1.2,168.76,5.31,206,42-.33,3.33-.67,6.67-1,10-4.61,3.1-7.1,8.22-11,12,.63,1.75.19,1,1,2,2.65,6.42,10.5,7.13,13,14-1.75,2.35-1.43,5.24-3,8-4.28,7.52-12.32,15.19-15,24-1.45,4.76-3.31,14.22-1,18,1.69,5.32,5.6,6.57,9,10,6.92.28,16.53,2.59,22-1,8.29-3.1,12.53-14.47,20-19,2.1-1.27,4.33.08,7-1s8.59-5.45,11-4c3.1,1.22,2.26.37,3,4-3.11,3.69-15.39,21.75-14,25,1.08,3.44,4.07,5.2,5,8,1.91,5.75-2,11-3,14-2.47,7.13-5.59,29.82-3,40,4.42,17.36,15.72,38.1,30,46v1c-10,1.52-14.79,29.65-19,39-11.9,26.42-30.66,55.65-50,75-47.54,47.55-100.91,81.53-177,101-16,4.08-46.61,15.57-62,12-5-1.16-9.09,1.28-12,2-10.65,2.63-30,.16-40,2-5.06.93-7-3-10-4h-22c-3-.78-7-3.23-10-4h-14c-1.66-.54-4.35-3.43-6-4-7.25-2.49-14.63-1.55-22-4-1.66-.55-4.34-3.42-6-4h-6c-5.84-2-12.48-7.12-18-10-7.94-4.14-16.47-6.2-24-11-40.73-25.94-72.38-63.06-93-109-5.31-11.84-5.52-23.35-10-36-7.76-21.92-11.13-49.28-5-74,2.8-11.3-1-20.32,2-31,.85-3,4-6.34,5-9,4.36-11.22,5.1-21.1,10-32,9.58-21.33,26.53-35.54,42-51,6.07-6.06,11.62-15.55,19-20,11.56-7,22.55-10.87,34-18,2-1.25,4.06-5,6-6,39.88-20.33,87-32.1,134-45,13.41-3.68,29.56-4.89,42-8C1346.75,238.82,1361,244.36,1370,238Z" fill="none" fill-rule="evenodd"/>
    <path d="M161,392c2.33.2,2.83.19,4,1,6.6,3,22.8,21,37,12,6.3-1.85,20.34-18.13,13-29-1.49-3-3.14-1.9-5-4-4.16-4.7-4.61-12.67-8-18-2.12-3.33-7.64-8.5-9-12v-6c1.28-3.49,6.28-7.62,9-10-.26-6.29-4.25-10.87-3-14,2.51-7.28,26.22-28.43,33-33,3.46-2.33,6.94-2.2,11-4,5-2.23,11.57-7.12,17-9h6c4.9-1.69,13.07-6.41,18-8h10c5.91-1.9,16.65-6.27,23-8h25c1.64-.52,4.36-3.48,6-4h61c21.34,0,42.63,0,59,4h14c15,3.88,35.86,7.82,50,12l12,1c21.83,9.27,46.38,12.25,68,22,61.35,27.67,111,63.6,135,129,8.93,24.36,15,45.11,15,80v28c-4.69,18.9-5.61,39.21-13,56-20.73,47.11-50.47,84.48-94,109-7.68,4.33-16.09,11.91-25,15-22.75,7.9-48.7,13.94-72,20H534c-25.63,6.11-60.71,2.33-86-4H434c-26.16-8.51-57.48-14-82-25-78.54-35.07-149-99.73-179-183-6.65-18.49-1-41.67-1-64V430c-.93-3.8-1.33-11.41-3-16C166.34,406.68,161.39,402.36,161,392Z" fill="none" fill-rule="evenodd"/>
    <path d="M1646,491h2v1C1646.25,491.37,1647,491.81,1646,491Z" fill="none" fill-rule="evenodd"/>
  </g>
  <g id="sunglass_frame" style="isolation: isolate">
    <path d="M1771,254c-5,.23-27.78-7.5-33-11s-4.81-7.5-14-8c-2.29,2.11-5.79,2.77-10,3,.2,2.33.19,2.83,1,4,3.57,10.26,17.6,13.91,19,26,.36,3.09-3.26,4.18-4,6v12c-2.44,6.88-12,11.92-16,18-5.37,8.22-6.63,18-13,25-2.17,2.38-5.7,3.71-8,6s-3.61,5.89-6,8c-3.28,2.9-8.7,3.12-12,6-2.42,2.12-4.22,6.31-7,8-3.16,1.92-6.38,1.68-9,4-1.65,1.45-2.35,4.55-4,6-8.36,7.36-23.48,6.8-26,20,2.28,1.12,11.85,3.21,13,5-2.45,2.68-12.85,15.45-14,18-2.86,6.33-2,17.82-7,22-1.38,1.11-2.87,1.49-5,2V422c1.67-2.34,7.32-25.71,6-30-2.22-7.2-5.42-5.46-5-16,3.27-2.33,13.81-17.76,15-22h-10c-4,3.35-11,3.53-15,7-16.26,14.28-13,22.55-43,16-16.36-24.86,8.69-40.8,14-61-6.11-3.46-9.29-7.38-14-12,.63-1.75.19-1,1-2,2.72-8.08,10-9.33,11-20-2.67-2.54-4.26-6.57-7-9-6.38-5.64-31.81-16-41-19h-10c-1.65-.53-4.35-3.46-6-4h-10c-1.64-.53-4.36-3.47-6-4h-14c-1.64-.53-4.36-3.47-6-4h-13a48.46,48.46,0,0,1-13-2h-20c-21.22-5.11-57.27-2.66-76,2h-16c-8,2.38-12.44,9.59-22,12h-32c-8.53,2.21-21.16,5.71-30,8h-8c-5.2,1.55-11.19,6.32-16,8-6.37,2.23-14.7,1.87-20,5-3,1.76-4.47,5.8-7,8-3.37,2.93-8.84,1.56-13,4-2.73,1.6-4.83,5.81-8,7h-6c-1.65.58-4.34,3.46-6,4h-14c-8.79,2.86-16.87,10.45-24,15-6.13,3.91-13.68,5.29-19,10s-9.07,11.07-14,16c-13.77,13.78-28.3,26.08-38,44-4,7.42-4.33,14.68-8,23s-8.49,20.21-11,30c-2.47,9.63.2,17.06-2,26s-5,30.14-2,42c5.45,21.79,7.64,42.64,15,62,1.77,4.67,6,9.7,8,14,32.42,71.25,90.49,110.74,171,134h12c4.5,1.11,9.54,3.66,15,4h19c2.33.73,4.62,4.3,8,4l4-2h36c2.93-.73,7-3.12,12-2,12.06,2.68,45.17-6.46,58-11l14-1c38.3-12.61,76.78-29.44,107-51,6.51-4.65,12.61-11.38,19-16,7.66-5.54,16-9.76,23-16,27.49-24.48,50.76-59.41,68-94,5-10,8.33-37.52,21-38,6.38,9.42,23.53,12,38,13-.65,14.23-11.36,18.7-16,29-8.51,18.89-14.27,36.5-25,53-6.29,9.68-16.6,17.74-23,27-31.64,45.74-78.14,75.48-127,104-5,2.89-12.64,2.38-18,5-1.2.58-2.52,3.36-4,4-4.8,2.08-7.21,1.6-12,4-1.21.61-2.46,3.45-4,4h-8c-1.14.49-2.53,3.48-4,4h-8c-1.14.49-2.53,3.48-4,4h-8c-1.14.49-2.53,3.48-4,4h-8c-1.14.49-2.53,3.5-4,4h-12c-6.07,1.77-15.93,4.23-22,6h-12c-29.17,8.42-92.64,6-120-2h-10c-2.7-.72-9.46-3.26-12-4h-12c-46.4-13.44-87.27-37.2-122-63l-19-20c-29.68-29.69-53.84-67-70-110-8.42-22.4-13.24-46.77-20-70-6.41-22,8.8-35.7,17-44,3.5-3.54,11.18-13.64,6-22-6-16.83-28.89-15-52-15H809c-8.93,13.07-11.31,6.54-11,31,16.85,10.58,28.81,28.79,20,58-2.49,8.24.41,14.3-2,22-14.16,45.16-34.76,84-57,121-5.86,9.76-8.69,20.75-16,29-2.74,3.1-7.06,5.06-10,8-6.26,6.25-11.4,14.13-18,20-10.93,9.73-24.45,16-37,24-7.2,4.61-15.2,11.92-24,15h-6c-4.52,1.58-9.48,6.42-14,8h-6c-4.94,1.71-13.07,6.28-18,8h-6c-1.65.57-4.34,3.46-6,4H588c-1.84.59-4.88,3.4-7,4-9.61,2.72-16.89-.68-26,2-15.61,4.59-54.89,7.1-72,2l-36-1c-7.32-2.85-20-4.59-28-7H409c-1.95-.57-4.61-3.45-6-4H393c-25.92-7.56-51.85-20.34-74-32-9.38-4.94-19.4-7.19-28-13l-4-5c-5-3-11.14-3.87-16-7l-6-7-6-1-8-9c-36.54-22.16-74.59-67.45-95-106-2-3.69-6.21-8.49-8-12q-.5-5.5-1-11c-1.77-3.63-5.78-6.43-7-11-1-3.66-.27-11.94,1-14,2-5.8,7.28-7.35,10-12,1.36-2.32-.1-5,1-8,1.82-5,6-9.16,7-14-.33-2-.67-4-1-6-.47-17.38-2.73-17.88-9-28-2-3.2-1.91-6.87-4-10-1.79-2.67-6.54-5.18-8-8-3.21-6.19-.58-11.69-3-17-3.31-7.26-13-12.34-17-19-1.92-3.16-1.68-6.38-4-9-2.12-2.39-5.72-3.72-8-6-4.34-4.34-7.68-9.64-12-14-.92-.93-3.15-1-4-2-3.83-4.35-4.18-11.66-8-16-4.6-5.23-11.33-9.9-14-17-5.27-14-.15-38,6-45,2.62-3,7.56-4.87,9-9V270c-4.21-2.55-9.17-3-15-5-1.59-3.29-2.58-8.3-6-10-2-1.88-3.84-2-8-2-4.43,5.61-11.33,8.42-15,15H37V223c3.2-3.21,0-7,2-12,4.44-11.39,15.93-10.3,32-10,7.91-10.05,25.54-2.27,34-11,4.49,1.55,4.5,4.58,7,6l13-1c14.21-.27,28.67-.5,39-4l45-1,2-3,46-1c5.35-1.29,30.9-6,38-4,4.49,1.28,33.3,5,40,2,1.65-.74,3-4.27,5-5h48c.75.25,2.48,2.8,3,3h22c13.59,0,27.94,1.21,38,4l23,1c7.41,2.14,21.72,4.66,29,7l15,1c12.15,3.59,29.68,6.5,41,11h10c21.47,6.06,43.54,15.31,62,24l10,2c31.19,15.25,59.37,34.41,90,50,3.11,1.58,5.14,6.43,8,8h4c9.68,4.93,19.34,16.51,31,20,13.24,4,33.91,2,50,2,35.42,0,65.15-2,101-2h97c6.5-1.91,11.64-8.95,18-11l6,1c1.46-.3,15.8-7.8,17-9,3-3,3-9.07,6-12,8.35-8.08,21.21-11.18,32-17l5-6c7.63-4.61,14.94-5.89,23-10,11.81-6,24.82-13.92,37-20,4.93-2.46,9.78-1.67,15-4,7.71-3.44,19.38-10.86,28-12l7,2c2-.46,4.3-4.14,6-5a64.9,64.9,0,0,1,12-4l6,1c3.69-.7,6-4.94,9-6,8.36-3,23.73.36,33-2,16.07-4.1,35.45-8.58,54-10v-5a21.58,21.58,0,0,1,7-1c3.14-1.55,14,6.68,25,4,9.42-2.3,11.5-7.77,17-10h45c6.36,1.54,20.75,4.22,30,2,19-4.56,47.59-2,70-2h29c2.2.62,4.8,3.38,7,4h53c2.12.58,5.17,3.43,7,4h33c2.2.62,4.8,3.38,7,4h33c3.09-1.08,4.49-5.4,7-7,4.93-3.14,10.72-4.85,18-5,4,4.54,9.48,13.39,17,14,1.6-1.47,16.53-1.41,20,1,3.63,1.08,6.76,3.41,8,7,2.54,4,1,15.06,1,21C1770.07,228.61,1772.52,241.57,1771,254Z" fill="none" fill-rule="evenodd"/>
    <path d="M161,392c.15,8.36,3.64,10.77,6,16,2.75,6.1,3.43,15.7,5,22v16c0,22.22-5.8,45.66,1,64,21.39,57.72,69.32,116.38,117,148,9.06,6,18.59,9.5,28,15,9.18,5.36,20.07,14,30,18,26.59,10.76,57.78,17.9,86,27h14c25.2,6.2,60.47,10.36,86,4h24c23.3-6.78,49.08-12,72-20,8.8-3.08,16.73-10.63,24-15,5-3,9.34-3.88,14-7,3.46-2.31,6.51-6.76,10-9,2.9-1.86,6.5-1.8,9-4,26.41-23.28,45.92-56.38,62-90,9.78-20.45,18.51-78.84,11-109V450c-5.72-19.68-14.2-41.34-23-58-33.46-63.4-93.83-95.58-165-121l-14-2c-22.08-9.35-51.67-12-76-19H466c-16.85-4.1-39.87-4-62-4H348c-1.64.53-4.36,3.47-6,4H320c-29.74,9.67-62,13.71-86,29-14.23,9.07-24.28,21.51-36,33,1.42,5.36,3.74,6.83,4,14-3.95,3.64-8.63,7.84-9,15,9.54,7.87,13.41,25.87,23,35,.06,6.68-.58,12.49-1,18-3.78,2.51-9.76,8.6-13,12-20.37.51-28.33-3.44-37-14Z" fill="none" fill-rule="evenodd"/>
    <path d="M138,444c.8,1,.35.27,1,2h-1Z" fill="none" fill-rule="evenodd"/>
    <path d="M140,448h2C140.81,449.61,141.58,449.22,140,448Z" fill="none" fill-rule="evenodd"/>
  </g>
  <g id="shadow_Billede" data-name="shadow Billede">
    <image id="shadow_Billede-2" data-name="shadow Billede" width="1782" height="595" transform="translate(6 172)" xlink:href="sunglasses1.png"/>
  </g>
</svg>
