<svg xmlns="http://www.w3.org/2000/svg" xmlns:xlink="http://www.w3.org/1999/xlink" viewBox="0 0 1472 1100">
  <g id="body" style="isolation: isolate" class="g_to_interact_with">
    <path d="M832,464c1,11.47,9.55,16.28,9,30-5.2,1.09-10.36,3.12-12,8-2.5,4.1.87,11.87,2,16,1.73,6.35-3.77,10.19-1,18,1.77,5,8.16,8.52,10,14,3.46,10.3-4,19.78-1,26,2.06,7.63,8.55,8.5,12,14,1.44,2.3,0,4.9,1,8,1.31,4.1,5.34,8.36,7,12,.67,3,1.33,6,2,9,2.08,3.83,7.83,5.4,10,9,4.1,6.8,1.91,15.71,5,24,1.52,4.06,6.6,6.72,9,10,5.24,7.17,12.44,15.9,16,24q.5,6,1,12c.8,2.67,4,5.74,5,8,3.32,7.63.71,15.12,3,24,1.12,4.34,4.84,8.34,6,12,4,12.76-7.38,16.67-11,22-3.85,5.67-2.2,12.24-2,20-4,2.72-3.89,4.83-11,5-9.45-9-18.46,1.22-30-1-3.3-.63-8-4.63-12-4-6.51,1-12.83,8.49-18,11l-20,1c-2.43,3.67-6.68,6.39-9,10-4,6.17-4.43,13.8-8,20-1,1.8-4.27,3.68-5,6-2.35,7.46,2.73,11.22,3,18l-3,1c-7.4,4.65-17.93.57-28,3-8.39,2-21.6,2.14-30,0H692c-12.56,0-26.86,1.3-34-2-.14-10.72-8-34.14-14-39-3.34-2.69-7.89-3.18-11-6-2.35-2.13-3.64-5.88-6-8-8.36-7.5-22.86-11.65-35-15-5.11-1.41-22-3.86-28-2-2,.61-3.37,3.63-5,2-4.25-4.25-11.77-12.2-12-20,6.57-5.77,5.55-13.67,8-24V729c.49-1.48,3.51-3.81,4-5V713c0-8.11,1-13.28,4-19,2-3.79,7.55-6.72,10-10,2.74-3.66.92-8.27,3-13,1.64-3.72,6.43-7,8-11,3.38-8.54,3.12-17.8,7-26,1.06-2.23,4.76-4,6-6q1-5,2-10c2.14-4.33,8-9.66,10-14,.45-1-1.11-6.54,0-10,.27-.85,2.72-3.15,3-4V579c1.21-3.4,6.12-6.08,8-9l3-10c2.76-5.67,9-12.4,11-18,1.71-4.85.55-39.92-1-43-1.66-3.3-6.27-8.39-9-11,1.1-7.06,2-14.35,10-15,6.55,9,13.27,13.9,26,17,8,2,13.8-3.18,20-2,8.1,1.55,14.92,6.22,22,8h19c15.9,0,22.09.62,37,1,3.43-4.81,9.62-16.81,14-20,2-1.44,6.1-4.34,8-5h10c2.09-.72,4.2-4,6-5,2.57-1.48,21.43-6.62,24-6C823.43,461.83,825.05,463.89,832,464Z"  fill-rule="evenodd"/>
  </g>
  <g id="ears" style="isolation: isolate" class="g_to_interact_with">
    <path d="M926,284c-10.39.08-20.42.55-24-6-1.51-2.76.08-5.1-2-7-4-3.6-10.36-7.4-12-13-1-3.27,1.76-6.07,2-8,.54-4.36-3-14.12-5-17-6.15-8.7-17.69-10.39-27-16-7.1-4.28-12.11-13.26-18-19,1.55-5.56,6.38-5.75,8-10,2.39-6.29,0-11.15,3-16,1-1.7,24.54-14.59,27-15,5.25-.88,12.9,3.22,16,4,5.53,1.39,12.92-5.48,22-2,5.43,2.08,7.66,8.05,12,11,6.71,4.56,16.48,5.39,21,12,1.93,2.83,1.8,6.5,4,9,3.17,3.61,9.26,6.07,11,11,.33,3.33.67,6.67,1,10,2.94,5.14,6,4.56,6,14-2.27,2.9-6,8.57-7,12q-.5,10-1,20c-1.45,3.78-6.63,5.91-8,9-2,4.44,2.23,6.52,0,11-3.52,7.08-14.76,12.57-23,15a19.17,19.17,0,0,0-4-2C926.89,288.52,926.31,287.77,926,284Z" fill-rule="evenodd"/>
    <path d="M568,175c14-.23,42.11,18.48,43,31-2.89,2.33-2.82,4.86-5,8-1.62,2.34-5.06,3-7,5-5.82,6-13,16.87-16,25-1.91,5.15.91,12.06-1,18-1.79,5.55-8,11.18-10,16v18c-1.61,6.32-5.46,12-8,18-7.48,3.8-12.51,5.78-23,5-6.83-9.66-24.4-9.09-31-19-3.75-5.63-3.52-13.32-7-19-2.25-3.68-7.53-4-9-9-3.27-11.08,2.15-24.16,4-30q.5-10,1-20c1.1-2.91,4.5-5.53,6-8,6.95-11.41,10.57-22.39,20-31,6.73-6.14,18.31-5.9,29-7C558.65,175.52,564.89,176.86,568,175Z"  fill-rule="evenodd"/>
  </g>
  <g id="head" style="isolation: isolate" class="g_to_interact_with">
    <path d="M772,480c.09,3.09.14,6.33-1,8a17.41,17.41,0,0,1-17,13c-11-6.57-36,3.7-54-1-5.88-1.54-11.16-7.89-16-9-1.78-.41-4.88,1.76-6,2-2.18.46-27.21-2.78-30-4-7.83-3.43-11.49-11.2-17-17-.31-6.89,1.28-7.1,2-14-5.82-4.43-11.85-18.85-17-21-2.3-1.42-7.56-.58-10-2-7.41-4.32-14.2-14.69-20-21h-4c-.57-17.77-15.86-21.31-20-34-3.21-9.84,3.28-15.53,4-22-5.78-6.2-9.14-32.8-10-44,3.31.36,5.5.18,7-4,6.38-7.88,5-18,8-30v-6c1.86-4.15,8.24-8.95,10-13,3.08-7.07-2.24-12.43,0-20,1-3.44,4.33-4.52,6-7,3.1-4.6,3.89-9.48,7-14,20.07-29.21,68.38-24.59,108-34l20,2c3.36-1.06,5.91-5.55,10-6s6,4.65,10,4c2.55-.42,5.51-5.15,8-6,8.94-3,17.31,2.66,22,4,5.39,1.54,13.59.15,18,1,2,4.81,3,7.79,10,8,4.38,2.22,34.44,6,39,5,8.76,2.66,14.41,13.36,23,17,6,2.53,22,9.63,24,15,8.17,9.67,1.35,19.77,6,32,1.78,4.69,8.18,5.36,11,9,2.28,2.94,3.89,8.05,7,10l12,2c.67,3,1.33,6,2,9-7,5.76-.34,16.51-4,28-.77,2.4-4.12,5.63-5,8q-.5,7-1,14c-.51,1.6-3.57,4.39-4,6-1.45,5.48,4.21,9.45,2,16-1.8,5.33-11.9,11-9,18,1.16,3.8,4.36,7.55,7,10-4.68,16.5-28.33,38.91-42,47l-14,4c-8.49,5.33-13.33,17-22,22-4.88,2.82-13.66-.6-20,1-5.72,1.44-9.4,6.43-14,8H786C780.89,475.48,778.9,479.34,772,480Z"  fill-rule="evenodd"/>
    <path d="M676,335a38.53,38.53,0,0,0-1-9c-5.6-3.68-10.29-6.74-19-5-2.41,4.65-5.38,6.27-6,13l3,8c2.7,1.19,9.48,3.43,11,6-2.1,2.81-1.66,8.22-4,11-1.86,2.21-5.59,3.17-7,6q-.5,6.5-1,13c-2.5,10.41-1.34,23.66,4,32,1.53,2.38,5,3,7,5,2.72,2.74,3.41,7.09,6,10,13.88,15.57,30.82,25.46,55,31,6.49,1.49,10.82-2.22,18-2l10,2c3.94-.63,8.65-5.47,12-7,5.23-2.38,13.73-2.91,18-6l3-5c2.25-2.28,5.58-2.84,8-5,3.3-3,4.91-7.8,8-11,5.09-5.28,12.69-10.13,15-18V366c-2.11-7.21-7.93-12.93-10-20l10-1c2.5-4.63,6.56-12.88,2-19-1.64-5.08-6.24-7-13-7-2.3,3-6.23,6.36-9,9a27,27,0,0,0,2,11h-3c-5.58-7.06-30.76-22.45-41-25H735c-7.64-.06-12.92-4-21-2-10,2.47-31.85,14.43-35,23Z"  fill-rule="evenodd"/>
  </g>
  <g id="arms" style="isolation: isolate" class="g_to_interact_with">
    <path d="M623,487h4c2,3.89,5.89,8.08,9,11,.23,10.42,5.7,28.91,2,40-.77,2.3-5.38,15.13-7,17s-4.72,2.83-6,5q-1,5-2,10c-1.73,2.92-6.55,5-8,8-1.71,3.59.5,5.29,0,8-.82,4.41-3.81,9.86-5,14v6c-.78,2.1-3.94,4.17-5,6q-1,5-2,10c-1.8,4-6.07,9-8,13q-1,5.5-2,11c-1,2-4.91,4.8-6,7-.33,3-.67,6-1,9-1.19,3.19-5.42,6.14-7,9-2,3.7-1.84,7.48-4,11-4,6.44-10.45,14.31-13,22-2.62,7.9.56,14.35-2,22-.55,1.65-3.46,4.35-4,6q.5,12,1,24c-.5,1.57-3.38,3.73-4,5q-1,5.5-2,11c-1.86,3-6.47,4.53-8,8-7.84,17.78-17.55,47.87-33,57-3.82,2.25-7.33,1.39-12,3s-10.91,8.15-16,6c-10.18-2.64-13.87-8.53-20-15-2.77-2.92-8.16-3.15-11-6-1.75-1.75-8.58-16.38-9-19-.37-2.3,2.2-5.49,1-9-1.15-3.35-5.57-10.14-5-15,.38-3.2,3.2-8.84,4-12V750c2.25-8.91,10.78-23.63,9-34-.55-3.23,1.77-15.74,4-20,1.7-3.25,7.64-4.4,9-8V676a82.63,82.63,0,0,1,3-10c2.39-6,8.12-8.59,12-13,4.86-5.52,5.74-15,10-21,2.16-3,7.9-3.16,10-6,1.6-2.16-.06-5,1-8,.93-2.64,5.15-13.21,7-16,2.59-3.92,7.41-7.81,10-12,5.25-8.48,7.53-17.92,14-25,4.16-4.55,11.69-7.82,15-13,4.21-6.59,4-13.58,9-19,3.72-4.07,8.3-5.73,13-9,6.38-4.44,11.1-12.84,18-17,3.2-1.93,6.31-1.71,9-4,1.62-1.38,3.11-5,5-6l8-1C612.4,494.32,619.64,490.23,623,487Z"  fill-rule="evenodd"/>
    <path d="M825,498c8.42-.46,11-6.62,18-9,4.85,6.08,11.44,2.21,19,6,2.85,1.43,24.94,18.82,26,21,2.19,4.49-.06,7.9,3,11,3.62,3.67,10.2,4.52,14,8,7.48,6.84,11.44,18.27,18,26,1.5,1.76,4.71,3.07,6,5,2.57,3.84,1.07,6.89,3,12,1.54,4.08,7.14,6.49,9,10,3.57,6.76,4.11,12,8,18,3.45,5.35,10.47,8.73,14,14,4.4,6.58,4.76,15.47,9,22,1.56,2.41,5.76,5.47,7,8,.33,3.33.67,6.67,1,10,1.43,3.59,7.3,4.73,9,8,.33,2.67.67,5.33,1,8,.86,2.2,4.12,4.23,5,6,2.32,4.63,1.09,10.14,4,14,2.16,2.86,8,4,9,8,.69,2.77-1.7,5.93-1,8,7.39,21.71,10.94,49.78,17,74,2.63,10.49-3.36,27.11-8,30-3.22,2.6-7.12,2.9-11,5-18.87,10.23-30.36,11.8-49-2-6.2-4.59-6.11-15.41-12-20-3.11-2.43-8.46-4.07-11-7-2.17-2.5-1.86-6.56-4-9-6.16-7-17.89-18.71-18-31,3.64-5.62-1.82-11.9-3-16-2.64-9.18-.93-19.28-4-28-1.53-4.34-6.36-6.84-5-14,2.39-12.6-22.48-34.63-27-48q-.5-5.5-1-11c-4.09-8.61-11.25-15.5-16-23-3.88-6.13-4.14-13.72-8-20-2-3.31-6.35-6.27-8-10-4.75-10.73,1-20.21-3-32-1.61-4.74-7.46-9.1-9-14q.5-8,1-16C825.87,511.63,824.3,508.8,825,498Z"  fill-rule="evenodd"/>
  </g>
  <g id="legs" style="isolation: isolate" class="g_to_interact_with">
    <path d="M565,780c37.67-.34,57.63,10.63,76,29,2.8,2.8,8.18,5.46,10,9,2.93,5.68,1.78,11.71,4,18,2,5.76,6,12.35,8,18q1,6,2,12c1.09,2.9,4.6,5.51,6,8,1.93,3.44,1.34,8.71,3,12,3.47,6.87,9.79,13.51,13,20,6.8,13.75-2.67,57.52-15,59-2.31,1.54-8.11,1.12-12,1-12.75,21.3-45.07,23.86-74,16l-20-3c-1.88-1-3.39-4.63-5-6-4.41-3.75-11.65-4.17-16-8-6.62-5.83-11.69-13.81-18-20-4.77-4.67-14.47-7.38-18-13q-1-6.5-2-13c-7.8-16.94-8.12-19.34-3-39v-8c.54-1.64,3.47-4.35,4-6,2.6-8.16-1.29-15.75,2-23,1.1-2.43,5.51-4.67,7-7,4-6.24,9.23-18.14,14-23,6-6.1,16.09-11.32,22-18,2.69-3,2.74-9,5-12C559.23,781.38,563.51,781.6,565,780Z"  fill-rule="evenodd"/>
    <path d="M854,782c7.58.1,13.36,4,22,2,1.16-.27,4.18-2.36,6-2,9,1.8,17.46,13,25,17,4.13,2.19,9.26,1.49,13,4,8.49,5.7,11.86,16.61,17,26,1.8,3.28,5.65,5.31,8,8,2.51,2.87,2.06,6.35,4,10,2.48,4.67,9.2,8,11,13,2.39,6.68-.76,16,1,22,1.56,5.33,9.4,20.43,9,24-1.94,17.18-18.63,43.78-29,53-4.32,3.84-13.92,1.83-19,5l-2,3c-5,2.88-10.08,3-15,6-4.21,2.55-5.91,6.49-11,9-9.93,4.89-21.64-.92-30,0-6.63.73-20.54,5.81-28,4-6.34-1.54-12.64-6.11-18-8l-10-1c-7.92-3.52-19-18.65-22-27-1.23-3.44-5.18-42.43-4-46,1.77-5.37,8.75-11,10-16,1.07-4.29-2.55-9.29,0-16,2-5.13,6.35-8.07,8-14-6-3.78-14.74-18.86-10-32,1.58-4.37,7.55-7.31,9-12,.78-2.53-1.75-3.77,0-7,2.94-5.42,10.63-10.6,15-15,4.49.44,9.13,3.61,14,2,4.32-1.43,7.77-7.14,12-9C844.59,783,850.39,784.63,854,782Z"  fill-rule="evenodd"/>
  </g>
  <g id="eyes" style="isolation: isolate" class="g_to_interact_with">
    <path d="M804,319c3.28-.12,7.18-.24,9,1,7.6,2.44,8.41,9.45,8,20-.8,1-.35.27-1,2l-6,5c-2.9.06-5.47.05-7-1-7.09-2.06-11.85-7.84-12-17,1.47-1.62.68-2.84,2-5S802,320.74,804,319Z" fill-rule="evenodd"/>
    <path d="M658,320c6.08-.08,9.48,1,14,2,2.29,3.52,4.43,4.42,5,10,1.24,1.57.64.51,0,2-1.82,6.69-6.84,7.85-11,12-8.69.86-14.29-.61-15-10-1.87-2.84-.4-6.25,0-10Z"  fill-rule="evenodd"/>
  </g>
  <g id="mouth" style="isolation: isolate" class="g_to_interact_with">
    <path d="M710,312c37.41-.8,58.78,3.95,81,23,4.63,4,12.54,6,16,11,7.66,11,11.86,22.17,9,38-1,5.51,4.55,14.67,1,22-6.12,12.62-18.62,22.26-29,31-1.71,1.44-2.09,4.71-4,6-6,4-15.4,5.64-22,9-1.85.94-4.26,4.34-6,5l-12-1c-38.91,8.52-67.37-16-83-38-1.47-2.07-4.4-3.15-6-5-2.18-2.52-8.34-21.45-7-27,.81-3.36,3.46-18.95,5-22,1-1.92,4.72-4.05,6-6,2.08-3.16,1.94-6.6,4-10,3.4-5.61,11.33-10.33,16-15,1.61-1.61,2.31-4.52,4-6C689.19,321.56,702.78,317.12,710,312Z"  fill-rule="evenodd"/>
    <path d="M730,344c-4.07,3-11.75,2.11-16,5l-10,13c-.13,3.47-.33,8,1,10,3,9.52,25.3,27,41,21,9.51-3.63,13.38-14.34,20-21,.38-13.53-6.34-25-18-26C744.18,343.42,736.25,343.88,730,344Z"  fill-rule="evenodd"/>
  </g>
   <g id="nose" style="isolation: isolate" class="g_to_interact_with">
    <path d="M728,344c17-.62,35.63,1.58,37,16,9.14,13.87-14.68,29.69-21,36-19.85.47-41-15.44-42-33,4-4.76,6.48-10.82,12-14C718.33,346.51,724.09,346.81,728,344Z"  fill-rule="evenodd"/>
  </g>
  <g id="shadow_Image" data-name="shadow Image">
    <image id="shadow_Image-2" data-name="shadow Image" width="656" height="885" transform="translate(432 144)" xlink:href="items/teddybear1.png"/>
  </g>
</svg>
